<svg xmlns="http://www.w3.org/2000/svg" width="318" height="318" viewBox="0 0 318 318">
    <g fill="none" fill-rule="evenodd">
        <circle cx="159" cy="159" r="158.2" fill="#000"/>
        <path class="greenbtn" fill="#388F3C" d="M317.19 164c-2.593 83.38-69.81 150.597-153.19 153.19v-72.518c43.385-2.498 78.174-37.287 80.672-80.672h72.518z"/>
        <path class="redbtn" fill="#D42F2F" d="M73.328 164c2.498 43.385 37.287 78.174 80.672 80.672v72.518C70.62 314.597 3.403 247.38.81 164h72.518z"/>
        <path class="bluebtn" fill="#1976D3" d="M73.328 154H.81C3.403 70.62 70.62 3.403 154 .81v72.518C110.615 75.826 75.826 110.615 73.328 154z"/>
        <path class="yellowbtn" fill="#FCC12D" d="M317.19 154h-72.518c-2.498-43.385-37.287-78.174-80.672-80.672V.81C247.38 3.403 314.597 70.619 317.19 154z"/>
        <circle cx="159" cy="159" r="75.036" fill="#bebebe"/>
        <path d="M231.5 159c0-40.041-32.459-72.5-72.5-72.5S86.5 118.959 86.5 159h145z"/>
        <text x="110.694" y="147.272" font-family="'Lato-Bold','Lato',sans-serif" font-weight="700" font-size="30" fill="#bebebe">
            SIMON
        </text>
    </g>
</svg>
